<?xml version="1.0" standalone="no"?>
<!DOCTYPE svg PUBLIC "-//W3C//DTD SVG 20010904//EN" "http://www.w3.org/TR/2001/REC-SVG-20010904/DTD/svg10.dtd">
<svg version="1.0" xmlns="http://www.w3.org/2000/svg" width="60px" height="60px" viewBox="0 0 646.000000 430.000000" preserveAspectRatio="xMidYMid meet">
	<g transform="translate(0.000000,430.000000) scale(0.100000,-0.100000)" fill="#000" stroke="none">
		<path d="M3350 4260 c-1132 -66 -1205 -70 -1635 -96 -445 -27 -445 -27 -445
-75 0 -20 36 -49 60 -49 47 0 88 -22 101 -53 17 -39 17 -209 1 -249 -13 -32
-49 -41 -257 -63 -77 -8 -156 -19 -175 -25 -39 -11 -94 -63 -129 -121 -27 -46
-61 -178 -61 -236 0 -67 27 -170 65 -248 18 -38 32 -71 30 -73 -2 -2 -70 -10
-152 -18 -328 -31 -339 -35 -402 -166 -50 -104 -66 -195 -58 -338 11 -185 48
-280 147 -374 67 -64 73 -59 -100 -76 -296 -29 -324 -36 -336 -85 -8 -34 3
-89 24 -115 18 -23 75 -39 134 -40 63 0 63 0 63 -420 0 -436 2 -427 -81 -445
-63 -14 -107 -44 -128 -89 -21 -46 -20 -68 6 -101 31 -39 109 -72 431 -181
786 -265 1721 -524 1892 -524 76 0 1509 264 2960 546 618 120 803 161 860 189
95 46 178 156 233 308 45 124 62 245 62 438 0 296 -40 500 -123 621 -57 83
-83 95 -242 108 -199 16 -361 39 -404 56 -58 23 -65 49 -65 238 1 214 15 256
89 256 66 0 105 33 119 101 7 34 40 47 227 94 170 43 205 57 214 84 14 45 -36
86 -121 98 -62 8 -73 28 -80 144 -7 111 8 215 34 242 11 11 43 22 82 27 35 5
67 15 71 22 14 21 11 98 -3 98 -31 0 -473 33 -476 36 -2 1 8 33 23 70 25 62
27 77 23 173 -3 94 -7 114 -35 173 -17 36 -42 73 -55 82 -41 26 -234 39 -1145
76 -271 11 -514 19 -540 19 -27 -1 -343 -18 -703 -39z m1145 -41 c132 -6 255
-14 274 -18 42 -8 -608 -61 -1482 -121 -422 -28 -471 -28 -1075 16 -51 4 -89
10 -85 14 10 10 1274 88 1758 109 282 12 347 12 610 0z m1234 -63 c57 -52 88
-245 54 -341 -24 -67 -60 -85 -189 -92 l-97 -6 6 29 c35 154 30 213 -28 339
l-33 74 41 10 c23 5 83 9 133 8 74 -2 96 -6 113 -21z m-330 -42 c51 -58 75
-129 74 -219 -1 -99 -40 -195 -79 -195 -10 0 -7 17 12 68 21 55 25 80 22 144
-3 67 -8 86 -46 158 -23 45 -42 84 -42 86 0 15 24 -2 59 -42z m-74 3 c38 -58
68 -153 68 -217 0 -59 -36 -197 -58 -219 -4 -3 -61 -8 -127 -9 l-121 -4 7 24
c3 12 11 62 17 111 12 101 3 159 -36 237 -25 49 -31 81 -18 93 3 4 62 7 129 7
118 0 124 -1 139 -23z m-388 -67 c62 -126 65 -251 10 -373 l-23 -51 -79 -1
c-44 -1 -118 -5 -164 -10 l-84 -8 7 54 c4 30 11 79 15 109 11 73 -3 155 -39
232 -36 75 -37 85 -9 93 21 7 272 24 314 21 14 -1 29 -20 52 -66z m47 40 c13
-17 40 -60 58 -97 29 -59 33 -77 32 -138 -2 -77 -31 -171 -64 -200 -11 -10
-20 -16 -20 -14 0 2 7 36 15 74 8 39 15 107 15 153 0 85 -13 124 -69 207 -12
17 -21 33 -21 38 0 17 30 5 54 -23z m-546 -67 c41 -92 52 -136 52 -219 0 -77
-29 -181 -58 -207 -11 -10 -57 -19 -132 -27 -63 -6 -135 -14 -159 -17 l-44 -6
7 34 c15 74 27 235 20 273 -3 23 -24 75 -45 118 -45 90 -56 81 121 97 156 15
183 18 196 19 6 1 25 -28 42 -65z m90 -31 c36 -67 56 -168 47 -232 -8 -56 -41
-133 -66 -156 -24 -22 -24 -13 2 89 30 117 24 190 -24 291 -20 43 -37 85 -37
94 0 26 44 -23 78 -86z m-541 26 c54 -56 86 -141 91 -238 2 -47 -1 -103 -7
-126 -14 -51 -51 -108 -74 -112 -15 -3 -13 5 9 65 23 60 25 79 22 168 -3 83
-9 110 -32 162 -16 34 -37 70 -47 79 -11 9 -19 21 -19 26 0 18 28 6 57 -24z
m-61 -13 c41 -52 58 -129 59 -260 0 -102 -3 -127 -22 -167 -15 -32 -29 -49
-45 -52 -32 -6 -274 -26 -322 -26 l-38 0 7 37 c16 88 23 207 15 259 -5 30 -25
89 -44 132 -19 42 -33 78 -31 81 8 7 289 29 344 27 46 -3 58 -7 77 -31z
m-1666 -36 c481 -37 636 -53 682 -72 26 -11 45 -30 67 -69 35 -60 74 -158 67
-166 -3 -3 -89 3 -192 12 -102 10 -188 15 -191 13 -6 -7 30 -14 202 -37 171
-23 188 -27 182 -43 -3 -9 -39 -11 -123 -9 -65 2 -116 1 -113 -2 3 -3 39 -10
80 -16 136 -19 162 -36 134 -88 -33 -61 -53 -75 -93 -68 -46 7 -483 74 -537
81 -90 13 -17 -7 145 -40 95 -19 176 -38 179 -41 3 -4 -12 -4 -34 0 -509 77
-1130 188 -1219 218 -21 7 -39 18 -39 23 -3 19 56 17 264 -10 115 -15 219 -25
231 -23 20 3 -279 55 -424 74 l-48 7 0 85 0 85 128 -6 127 -6 -113 19 c-113
18 -153 33 -116 43 11 3 33 9 49 13 28 8 27 8 -19 14 -30 3 -51 11 -54 19 -4
12 11 13 89 7 52 -3 150 -8 219 -11 l125 -4 -105 14 c-58 8 -114 16 -125 19
-37 9 186 -5 575 -35z m1149 -48 c40 -102 54 -200 41 -289 -12 -84 -33 -137
-63 -155 -22 -14 -284 -44 -294 -34 -2 3 3 38 13 78 26 106 12 171 -66 323
-33 65 -59 120 -56 123 6 6 230 26 352 31 l41 2 32 -79z m47 47 c75 -89 106
-257 70 -381 -15 -53 -58 -118 -70 -107 -3 3 4 34 14 69 39 123 22 292 -40
393 -37 62 -20 79 26 26z m-2038 -337 c81 -41 477 -117 1207 -231 143 -22 265
-43 270 -45 6 -3 -26 -3 -70 -1 -213 11 -1505 247 -1505 275 0 27 47 28 98 2z
m-122 -53 c3 -3 -13 -33 -34 -67 -57 -87 -76 -167 -69 -288 2 -54 12 -117 21
-141 20 -55 16 -57 -116 -48 -140 10 -168 21 -196 77 -69 139 -37 360 65 450
l37 32 143 -5 c79 -3 146 -7 149 -10z m57 -119 l-48 -94 1 -105 c0 -90 5 -115
27 -171 32 -77 32 -79 11 -79 -21 0 -73 114 -85 189 -11 73 1 160 33 227 20
44 97 139 105 131 2 -3 -18 -47 -44 -98z m227 66 c165 -34 166 -35 130 -104
-43 -85 -48 -299 -9 -390 11 -24 18 -45 17 -47 -2 -1 -59 2 -127 8 -112 10
-125 9 -136 -6 -11 -14 -18 -6 -51 56 l-39 73 0 140 c0 130 2 144 26 195 34
72 63 102 92 95 12 -3 56 -12 97 -20z m4335 -10 c-5 -3 -179 -25 -385 -50
-206 -26 -388 -50 -405 -55 -37 -11 -9 -9 400 30 399 39 513 46 500 32 -5 -6
-59 -20 -120 -32 -60 -12 -126 -24 -145 -28 -19 -4 28 -6 105 -4 90 2 135 -1
125 -7 -19 -12 -138 -35 -320 -61 -242 -36 -181 -42 100 -10 96 11 189 20 207
20 34 0 34 1 49 -132 6 -54 5 -57 -17 -62 -13 -3 -229 -42 -479 -87 -423 -75
-550 -101 -405 -84 33 3 161 22 285 41 480 74 612 93 626 87 30 -11 13 -33
-38 -47 -83 -23 -215 -46 -270 -46 -29 0 -55 -6 -64 -14 -17 -18 -161 -52
-484 -116 -251 -49 -643 -120 -663 -120 -38 0 54 20 493 109 272 55 509 105
525 111 67 22 -94 -4 -555 -90 -658 -123 -761 -140 -781 -129 -27 14 -60 65
-66 103 -5 33 -4 35 33 45 22 5 170 26 329 46 160 20 313 41 340 47 28 6 79
14 115 17 l65 6 -49 8 c-26 4 -51 5 -56 2 -4 -2 -45 -7 -91 -10 -119 -8 -349
-32 -519 -55 -170 -24 -193 -24 -188 -7 9 25 61 36 398 87 411 61 685 107 650
109 -33 1 -494 -51 -789 -89 -279 -37 -262 -37 -252 -2 10 35 53 120 97 194
l35 57 72 15 c115 25 589 80 1427 165 89 9 182 12 165 6z m-4075 -58 c0 -8
-12 -47 -26 -88 -21 -59 -27 -94 -28 -169 -1 -85 2 -102 28 -158 16 -34 26
-66 22 -69 -14 -15 -42 16 -66 73 -31 76 -35 230 -7 309 29 84 77 147 77 102z
m279 -37 c134 -27 176 -44 166 -67 -30 -77 -30 -260 0 -345 27 -77 24 -82 -44
-75 -33 4 -110 10 -172 13 -102 7 -113 6 -126 -11 -11 -17 -15 -17 -27 -5 -42
43 -91 244 -81 330 8 63 30 134 52 169 14 22 20 23 72 18 31 -4 103 -16 160
-27z m2083 -6 l36 -6 -43 -67 c-133 -206 -165 -349 -110 -498 13 -37 22 -69
20 -71 -2 -3 -53 1 -112 7 -59 6 -141 11 -180 11 -106 0 -119 18 -144 195 -20
145 9 312 64 362 52 49 336 89 469 67z m-1823 -202 c-2 -128 0 -142 26 -210
29 -76 28 -97 -4 -68 -30 27 -71 129 -77 194 -9 87 23 241 48 226 5 -3 8 -67
7 -142z m1267 96 c-3 -18 -13 -58 -21 -88 -27 -98 -14 -272 30 -382 14 -36
-25 -18 -44 20 -40 78 -54 150 -48 246 7 117 47 236 80 236 6 0 7 -13 3 -32z
m-986 -23 l187 -46 0 -87 c0 -50 9 -125 21 -177 12 -49 19 -91 17 -93 -2 -2
-67 1 -144 8 -78 7 -164 10 -191 7 -47 -6 -51 -5 -65 23 -37 71 -57 181 -53
284 3 101 10 126 30 126 6 0 95 -20 198 -45z m851 -42 c-15 -53 -13 -243 3
-333 8 -41 11 -79 8 -84 -2 -4 -28 -6 -56 -2 -117 14 -255 25 -318 26 -55 0
-69 3 -77 19 -21 38 -61 215 -61 266 l0 52 78 7 c96 9 220 36 337 73 50 16 91
26 93 22 2 -4 -1 -25 -7 -46z m-557 -50 c2 -10 8 -49 11 -88 4 -38 16 -103 27
-143 21 -74 20 -89 -6 -79 -28 11 -58 117 -63 225 -5 88 -4 102 10 102 9 0 18
-8 21 -17z m3084 -188 c-18 -19 -1049 -231 -1398 -289 -454 -75 -398 -51 90
38 333 61 821 158 1130 225 131 28 189 37 178 26z m-5340 -164 c40 -5 75 -11
78 -14 3 -3 -11 -37 -31 -76 -50 -100 -68 -184 -69 -321 0 -107 9 -163 41
-246 6 -16 -4 -17 -119 -11 -75 3 -140 12 -161 21 -33 13 -38 21 -62 97 -35
110 -42 213 -22 309 20 99 52 183 84 220 24 29 28 30 106 30 45 -1 115 -5 155
-9z m194 -49 c-4 -9 -24 -47 -45 -84 -49 -86 -61 -158 -52 -313 5 -92 12 -134
30 -180 26 -62 25 -76 -3 -59 -26 16 -51 74 -67 159 -37 190 -4 346 97 469 29
36 53 41 40 8z m306 11 c45 -4 62 -10 62 -21 0 -8 -16 -49 -35 -91 -50 -112
-58 -161 -53 -345 3 -126 8 -168 21 -193 9 -18 17 -34 17 -37 0 -3 -66 -3
-147 -1 l-148 4 -27 76 c-68 187 -57 376 31 579 l21 49 98 -7 c53 -4 125 -9
160 -13z m157 -106 c-62 -129 -79 -202 -78 -317 1 -69 8 -119 27 -185 24 -85
24 -113 0 -97 -64 41 -96 318 -53 458 36 116 103 234 134 234 10 0 0 -28 -30
-93z m337 72 c84 -5 158 -12 165 -14 7 -2 -2 -34 -27 -93 -56 -129 -74 -229
-67 -371 3 -75 12 -138 25 -178 11 -34 17 -65 14 -68 -9 -9 -93 -5 -202 10
-144 20 -147 19 -164 -12 l-15 -28 -24 55 c-85 194 -83 469 6 647 33 67 44 69
289 52z m288 -39 c0 -5 -18 -50 -41 -100 -83 -186 -89 -345 -20 -544 22 -63
22 -70 -1 -61 -46 18 -89 171 -89 318 -1 105 15 174 62 285 32 74 89 140 89
102z m448 -16 c29 -9 28 -29 -8 -123 -17 -43 -37 -110 -45 -147 -27 -127 -15
-343 24 -446 6 -15 7 -29 3 -32 -5 -3 -80 4 -168 15 -87 11 -176 18 -196 16
-34 -5 -38 -3 -51 32 -78 195 -64 537 28 678 l17 26 187 -6 c102 -3 196 -9
209 -13z m163 -32 c-4 -9 -26 -55 -48 -102 -55 -116 -68 -174 -68 -315 0 -105
4 -132 29 -213 16 -50 26 -95 23 -99 -15 -14 -48 34 -68 96 -26 84 -37 279
-20 374 14 82 66 200 110 250 33 37 57 42 42 9z m337 -3 c111 -7 202 -15 202
-19 0 -5 -16 -41 -35 -81 -89 -189 -109 -447 -49 -632 9 -27 14 -51 11 -53 -3
-3 -67 2 -144 12 -76 9 -177 17 -225 18 l-88 1 -20 47 c-36 83 -45 147 -44
308 0 129 4 168 22 233 40 142 74 189 131 182 20 -2 127 -10 239 -16z m306
-51 c-3 -13 -24 -62 -45 -109 -55 -122 -62 -169 -56 -344 4 -117 9 -163 26
-209 25 -71 26 -76 5 -76 -8 0 -24 20 -35 45 -84 191 -56 521 57 669 38 50 60
60 48 24z m351 2 c194 -12 192 -11 159 -64 -51 -82 -112 -223 -133 -305 -29
-115 -29 -268 -1 -352 11 -33 18 -64 15 -70 -9 -13 -46 -11 -191 7 -94 12
-132 13 -150 5 -22 -10 -25 -7 -42 27 -40 80 -47 130 -47 347 0 228 -3 208 69
378 l16 37 78 0 c42 0 145 -5 227 -10z m1969 -50 c-6 -6 -69 -22 -140 -35 -71
-13 -185 -35 -254 -49 -108 -22 -116 -25 -60 -22 36 3 152 14 258 26 106 13
195 21 197 18 5 -5 27 -230 22 -234 -1 -2 -234 -51 -517 -110 -560 -116 -605
-126 -520 -118 106 11 358 55 693 120 186 36 345 63 353 60 24 -9 16 -35 -17
-55 -32 -19 -481 -134 -925 -235 -328 -76 -866 -188 -871 -182 -8 8 113 38
632 157 457 104 506 116 484 118 -8 1 -204 -37 -435 -84 -470 -95 -684 -135
-718 -135 -19 0 -29 12 -50 60 -15 33 -30 76 -33 94 -6 40 -40 29 312 97 121
24 212 45 203 47 -10 2 -100 -8 -200 -22 -255 -34 -295 -38 -318 -31 -22 7
-27 33 -7 40 12 5 294 56 722 131 121 22 210 40 199 42 -20 3 -841 -112 -891
-124 -21 -6 -23 -3 -23 28 0 66 95 292 139 332 30 28 111 31 227 11 58 -10
185 -20 304 -24 l205 -6 -165 -28 c-90 -15 -166 -30 -169 -32 -10 -10 54 -3
353 40 171 24 410 56 531 70 121 14 252 29 290 34 104 13 201 13 189 1z m190
-390 c59 -22 23 -43 -170 -99 -478 -138 -1478 -367 -1687 -386 -106 -9 -37 9
293 80 391 83 853 190 1110 256 321 83 373 102 383 139 6 22 31 26 71 10z
m564 -177 c66 -142 92 -289 92 -515 0 -187 -24 -339 -72 -450 -17 -40 -25 -48
-47 -48 -14 0 -102 -16 -196 -34 -93 -19 -171 -33 -173 -32 -1 2 4 21 12 43
31 89 40 195 38 468 -1 149 -3 294 -4 324 -3 52 -2 55 27 64 75 24 84 73 30
157 -19 30 -35 63 -35 72 0 23 45 30 231 36 l56 2 41 -87z m-5524 -52 c9 -14
-21 -21 -92 -21 -169 0 28 -33 633 -105 863 -102 967 -111 1162 -95 179 15
334 8 312 -14 -2 -2 -69 -14 -149 -26 -212 -31 -349 -36 -515 -16 -215 26
-1073 141 -1425 191 -174 25 -320 45 -325 45 -6 0 -3 4 5 9 8 5 62 14 120 20
58 6 119 13 135 15 64 7 134 6 139 -3z m676 -71 c543 -61 874 -101 889 -106
37 -12 -8 -12 -156 1 -400 35 -1131 129 -1148 147 -7 7 1 9 25 4 19 -3 195
-24 390 -46z m4321 -127 c11 -13 14 -83 14 -357 l0 -341 -33 -95 c-36 -108
-52 -138 -52 -102 0 26 -7 27 -99 7 -39 -8 -96 -19 -127 -24 l-57 -8 7 51 c3
28 12 94 21 146 20 126 20 406 -1 551 -8 62 -12 115 -7 120 10 9 252 63 304
68 9 0 23 -6 30 -16z m-5256 -64 c187 -23 707 -93 1403 -190 l454 -63 14 -35
c67 -160 141 -409 158 -533 l7 -48 -33 0 c-34 0 -388 58 -935 154 -171 30
-335 57 -365 60 l-53 6 65 -16 c36 -8 342 -71 680 -139 479 -97 618 -129 628
-142 7 -10 12 -34 10 -53 -3 -34 -4 -35 -43 -34 -22 0 -177 24 -344 52 -292
50 -350 58 -340 47 3 -2 131 -32 285 -65 295 -64 422 -95 431 -104 8 -8 -18
-146 -43 -227 -41 -129 -4 -128 -447 -14 -963 246 -1025 261 -957 234 14 -6
243 -73 510 -150 486 -140 783 -231 809 -248 30 -19 -13 -22 -87 -6 -384 85
-1232 328 -1777 509 -286 95 -305 107 -290 176 5 21 13 30 26 30 30 0 312 -59
853 -180 274 -61 503 -109 508 -108 4 2 -87 27 -204 57 -738 188 -1028 265
-1113 296 l-40 15 14 197 c8 109 15 199 16 201 1 1 67 -9 146 -22 248 -43 628
-98 646 -94 10 2 -150 37 -355 77 -204 41 -387 81 -405 90 -33 16 -48 54 -29
73 6 6 59 3 147 -7 75 -9 139 -15 141 -12 3 3 -57 20 -133 38 -102 24 -144 39
-161 56 -29 29 -25 57 8 61 14 1 207 -22 430 -52 751 -102 884 -118 790 -95
-19 4 -177 31 -350 59 -530 86 -901 150 -911 156 -19 11 4 24 34 19 18 -2 109
-14 202 -26z m2530 -103 c36 -78 78 -204 101 -306 21 -89 30 -457 15 -576 -15
-109 -59 -287 -77 -311 -13 -17 -13 -17 -14 -1 0 10 9 50 20 90 52 191 71 525
41 713 -18 113 -63 265 -110 370 -37 84 -43 114 -19 99 6 -4 25 -39 43 -78z
m2254 52 c24 -69 35 -291 23 -471 -12 -176 -29 -262 -63 -329 -32 -62 -38 -43
-13 42 54 185 74 536 40 683 -9 38 -16 77 -16 88 0 30 17 22 29 -13z m-2308
-93 c113 -342 126 -692 39 -1086 -24 -105 -40 -150 -48 -129 -12 34 -14 34
-241 -11 -172 -35 -196 -36 -186 -11 26 69 37 155 42 333 9 311 -19 473 -123
727 -31 76 -63 154 -72 175 -8 20 -13 39 -11 42 3 2 110 18 239 35 129 17 240
33 245 35 6 2 26 3 45 2 l35 -2 36 -110z m328 33 c46 -28 118 -75 160 -105
113 -81 125 -86 236 -92 l100 -6 14 -40 c21 -60 20 -384 -3 -545 -20 -146 -50
-280 -71 -318 l-14 -27 -1 28 c0 36 -8 36 -262 -14 -115 -23 -212 -38 -216
-35 -3 4 0 39 7 79 31 177 35 225 35 447 1 271 -11 359 -75 552 -21 65 -39
123 -39 129 0 17 37 1 129 -53z m1896 45 c3 -10 11 -76 17 -146 15 -187 -2
-447 -41 -598 -27 -107 -67 -217 -75 -208 -2 2 -1 25 3 52 7 40 5 47 -8 47 -9
0 -96 -16 -194 -35 -97 -19 -182 -35 -187 -35 -14 0 -12 43 5 130 22 106 32
507 16 634 -7 54 -11 100 -8 102 2 3 74 18 158 34 203 38 196 37 255 39 41 1
53 -3 59 -16z m-679 -160 c9 -59 -2 -457 -16 -574 -5 -47 -24 -133 -41 -190
-32 -109 -55 -160 -45 -102 3 18 1 35 -4 38 -5 3 -53 -3 -107 -14 -145 -30
-295 -53 -301 -46 -3 3 2 45 12 93 25 127 41 458 30 625 -9 133 -8 138 11 143
66 16 386 73 417 73 36 1 37 0 44 -46z m97 -248 c1 -218 -32 -428 -83 -524
-27 -51 -25 -27 10 107 29 112 31 127 36 387 3 148 8 277 11 285 13 32 25 -92
26 -255z m-713 105 c15 -97 14 -374 0 -481 -15 -112 -46 -242 -67 -282 -26
-48 -28 -11 -5 65 51 162 72 479 48 708 -11 108 8 100 24 -10z m-3746 -512 c3
-7 7 -25 10 -40 8 -33 37 -49 190 -103 59 -21 119 -48 132 -60 17 -16 78 -36
210 -69 102 -26 313 -83 468 -127 348 -99 568 -159 896 -244 312 -80 290 -73
265 -91 -15 -11 -33 -13 -70 -9 -218 28 -863 206 -1475 407 -273 90 -355 122
-345 138 4 7 -7 8 -34 4 -31 -5 -42 -3 -46 9 -4 9 -25 17 -54 21 -49 6 -200
54 -240 76 -31 16 -23 49 18 77 37 25 70 30 75 11z" />
		<path d="M1938 3963 c7 -3 16 -2 19 1 4 3 -2 6 -13 5 -11 0 -14 -3 -6 -6z" />
		<path d="M5038 2973 c7 -3 16 -2 19 1 4 3 -2 6 -13 5 -11 0 -14 -3 -6 -6z" />
		<path d="M4598 2283 c6 -2 18 -2 25 0 6 3 1 5 -13 5 -14 0 -19 -2 -12 -5z" />
	</g>
</svg>
